<svg width="70" height="70" viewBox="0 0 70 70" fill="none" xmlns="http://www.w3.org/2000/svg">
<circle cx="35" cy="35" r="35" fill="white"/>
<path d="M28.8448 37.1955H15.2301C14.6824 37.1955 14.2239 37.0134 13.8545 36.6491C13.4849 36.2848 13.3 35.849 13.3 35.3419C13.3 34.8347 13.4849 34.3932 13.8545 34.0172C14.2239 33.6413 14.6824 33.4534 15.2301 33.4534H28.8448L23.6806 28.3271C23.298 27.9853 23.1068 27.5564 23.1068 27.0404C23.1068 26.5244 23.298 26.0818 23.6806 25.7127C24.0283 25.3709 24.463 25.2001 24.9847 25.2001C25.5063 25.2001 25.9584 25.3709 26.3409 25.7127L34.7914 34.0172C35.1392 34.4055 35.313 34.8528 35.313 35.3593C35.313 35.8658 35.1392 36.2899 34.7914 36.6316L26.3409 44.9362C25.9584 45.3121 25.5063 45.5001 24.9847 45.5001C24.463 45.5001 24.0283 45.3121 23.6806 44.9362C23.298 44.5944 23.1068 44.1672 23.1068 43.6546C23.1068 43.142 23.298 42.6977 23.6806 42.3218L28.8448 37.1955ZM39.6948 45.0387C39.1808 45.0387 38.7393 44.8566 38.3703 44.4922C38.0014 44.1279 37.8169 43.6922 37.8169 43.1851C37.8169 42.6779 38.0014 42.2364 38.3703 41.8604C38.7393 41.4845 39.1808 41.2965 39.6948 41.2965H54.8222C55.3362 41.2965 55.7776 41.4836 56.1466 41.8579C56.5156 42.2321 56.7001 42.6803 56.7001 43.2025C56.7001 43.7096 56.5156 44.1425 56.1466 44.501C55.7776 44.8595 55.3362 45.0387 54.8222 45.0387H39.6948ZM39.6948 29.3523C39.1808 29.3523 38.7393 29.1702 38.3703 28.8059C38.0014 28.4416 37.8169 28.0058 37.8169 27.4987C37.8169 26.9915 38.0014 26.55 38.3703 26.1741C38.7393 25.7981 39.1808 25.6102 39.6948 25.6102H54.8222C55.3362 25.6102 55.7776 25.7973 56.1466 26.1715C56.5156 26.5457 56.7001 26.9939 56.7001 27.5161C56.7001 28.0236 56.5156 28.4564 56.1466 28.8146C55.7776 29.1731 55.3362 29.3523 54.8222 29.3523H39.6948ZM45.9544 37.1955C45.4404 37.1955 44.9989 37.0134 44.6299 36.6491C44.261 36.2848 44.0765 35.849 44.0765 35.3419C44.0765 34.8347 44.261 34.3932 44.6299 34.0172C44.9989 33.6413 45.4404 33.4534 45.9544 33.4534H54.8222C55.3362 33.4534 55.7776 33.6405 56.1466 34.0147C56.5156 34.3889 56.7001 34.8371 56.7001 35.3593C56.7001 35.8665 56.5156 36.2993 56.1466 36.6578C55.7776 37.0163 55.3362 37.1955 54.8222 37.1955H45.9544Z" fill="black"/>
</svg>
