<svg width="48" height="26" viewBox="0 0 48 26" fill="none" xmlns="http://www.w3.org/2000/svg">
<path d="M20.5714 24.5556L0.979592 5.41667C0.653061 5.09969 0.408163 4.75583 0.244898 4.38509C0.0816326 4.01515 0 3.61873 0 3.19583C0 2.34923 0.291836 1.60494 0.875509 0.962963C1.45918 0.320988 2.22857 0 3.18367 0H44.8163C45.7714 0 46.5408 0.324997 47.1245 0.974997C47.7082 1.625 48 2.38333 48 3.25C48 3.57099 47.6735 4.29321 47.0204 5.41667L27.4286 24.5556C26.9388 25.037 26.4155 25.3981 25.8588 25.6389C25.302 25.8796 24.6898 26 24.022 26C23.3543 26 22.7347 25.8796 22.1633 25.6389C21.5918 25.3981 21.0612 25.037 20.5714 24.5556Z" fill="white"/>
</svg>
